# xmcd CD database file
#
# Track frame offsets:
#	150
#	19435
#	38097
#	63655
#	76815
#	96560
#	113630
#	134695
#	145455
#	154445
#	187075
#	225750
#	243690
#
# Disc length: 3908 seconds
#
# Revision: 0
# Processed by: cddbd v1.5.1PL0 Copyright (c) Steve Scherf et al.
# Submitted via: CDex 1.50
#
DISCID=bc0f420d
DTITLE=Jazz and Dintorni # 49 - Earl Hines
DYEAR=1900
DGENRE=Jazz
TTITLE0=Jitterburg Waltz
TTITLE1=Ain't Misbehavin'
TTITLE2=Honeysuckle Rose
TTITLE3=Piano Man
TTITLE4=Black and Blue
TTITLE5=Blues for Tatum
TTITLE6=West End Blues
TTITLE7=Clarinet Marmalade
TTITLE8=Do You Know What It Means to Miss New Orleans
TTITLE9=Take The 'A' Train
TTITLE10=Sweet Georgia Brown
TTITLE11=The Man I Love
TTITLE12=C-Jam Blues
EXTD=
EXTT0=
EXTT1=
EXTT2=
EXTT3=
EXTT4=
EXTT5=
EXTT6=
EXTT7=
EXTT8=
EXTT9=
EXTT10=
EXTT11=
EXTT12=
PLAYORDER=
